<?xml version="1.0" encoding="UTF-8"?>
<svg xmlns="http://www.w3.org/2000/svg" width="1600" height="900" viewBox="0 0 1600 900">
  <rect width="1600" height="900" fill="#070b13"/>
  <text x="70" y="60" fill="#f4f1e8" font-family="system-ui,sans-serif" font-size="34" font-weight="700">P0-004 representative corridor review</text>
  <text x="70" y="92" fill="#9fb0c8" font-family="system-ui,sans-serif" font-size="18">Official NHPN centerline + checksum-locked USGS 3DEP profile · Boulder to Westminster area · US 36</text>
  <rect x="50" y="110" width="920" height="725" rx="16" fill="#101827" stroke="#26364e"/>
  <path d="M 134.5 125.0 L 135.1 126.2 L 135.8 126.9 L 138.2 128.8 L 140.3 130.6 L 140.6 130.8 L 144.2 133.2 L 144.6 133.5 L 146.0 134.6 L 159.0 144.4 L 212.1 184.6 L 212.7 185.0 L 213.7 185.8 L 213.7 185.8 L 215.0 186.6 L 215.0 186.6 L 216.8 187.7 L 217.0 187.8 L 221.1 190.3 L 221.2 190.3 L 221.2 190.3 L 221.2 190.3 L 226.9 193.8 L 229.3 195.3 L 229.3 195.3 L 230.9 196.3 L 232.0 197.0 L 247.0 206.0 L 247.7 206.4 L 249.4 207.4 L 266.9 217.9 L 269.6 219.5 L 272.1 221.0 L 272.3 221.1 L 277.7 224.4 L 300.2 238.1 L 321.1 250.6 L 337.0 258.4 L 350.8 265.1 L 381.3 280.8 L 397.6 289.2 L 398.3 289.6 L 403.8 292.3 L 410.6 295.6 L 421.2 300.9 L 422.6 301.6 L 459.1 320.1 L 460.1 320.6 L 460.8 320.9 L 468.2 324.7 L 469.2 325.2 L 472.0 326.5 L 480.0 330.9 L 481.5 331.6 L 483.3 332.7 L 484.1 333.2 L 484.9 333.8 L 486.1 334.6 L 486.5 334.9 L 488.2 336.1 L 489.9 337.4 L 491.1 338.4 L 491.7 338.9 L 493.8 340.8 L 495.7 342.6 L 503.3 350.3 L 509.7 356.7 L 510.9 357.9 L 513.3 360.3 L 515.2 362.3 L 515.5 362.6 L 518.8 365.8 L 522.8 369.6 L 539.8 384.1 L 549.7 392.7 L 551.1 393.9 L 553.5 395.9 L 560.1 401.4 L 561.1 402.3 L 564.8 405.4 L 573.4 412.6 L 573.7 412.8 L 577.0 415.3 L 579.7 417.1 L 580.3 417.4 L 581.2 418.0 L 586.7 421.2 L 592.4 424.6 L 594.7 425.9 L 596.8 427.2 L 597.8 427.7 L 599.8 428.9 L 606.1 432.6 L 611.5 435.7 L 611.5 435.7 L 612.7 436.4 L 617.5 439.2 L 620.7 441.1 L 628.1 445.8 L 630.3 447.2 L 632.1 448.3 L 632.1 448.4 L 634.3 449.7 L 634.6 450.0 L 636.7 451.5 L 639.3 453.6 L 640.7 454.9 L 643.2 457.2 L 643.3 457.3 L 645.6 459.6 L 649.7 463.7 L 651.1 465.1 L 653.9 467.9 L 655.3 469.2 L 668.4 482.7 L 670.7 484.9 L 670.7 484.9 L 676.3 489.4 L 685.4 495.2 L 693.3 499.9 L 693.4 500.0 L 710.5 510.2 L 710.5 510.3 L 717.4 514.6 L 724.3 518.4 L 725.5 519.1 L 725.8 519.3 L 727.8 520.6 L 728.0 520.7 L 731.0 522.7 L 731.3 522.9 L 733.0 524.3 L 735.4 526.1 L 739.0 529.2 L 741.9 532.1 L 741.9 532.1 L 742.2 532.4 L 743.7 534.1 L 745.1 535.7 L 745.1 535.7 L 746.5 537.4 L 748.5 540.1 L 751.0 543.7 L 753.7 548.4 L 761.7 563.4 L 769.1 577.1 L 769.2 577.2 L 770.8 580.6 L 771.4 581.6 L 774.3 586.7 L 778.3 594.1 L 781.1 599.3 L 783.2 603.3 L 785.1 607.1 L 786.9 610.9 L 788.1 613.6 L 795.4 630.1 L 796.9 633.0 L 799.5 637.6 L 799.7 638.0 L 801.0 640.2 L 801.0 640.2 L 804.3 646.1 L 805.1 647.4 L 805.1 647.5 L 806.3 649.6 L 808.3 653.0 L 809.7 655.5 L 809.8 655.7 L 813.6 662.6 L 813.7 662.8 L 815.6 666.1 L 816.1 667.1 L 819.9 673.7 L 819.9 673.7 L 822.2 677.8 L 822.2 677.8 L 824.0 681.0 L 833.6 697.9 L 833.8 698.3 L 850.1 727.1 L 851.8 730.2 L 854.1 734.4 L 855.5 737.4 L 857.6 742.5 L 861.9 754.8 L 863.1 758.1 L 863.8 760.1 L 866.6 767.8 L 866.6 767.8 L 866.8 768.2 L 867.4 769.8 L 868.0 771.5 L 868.9 773.9 L 869.3 775.0 L 870.8 779.0 L 872.2 783.4 L 875.2 791.9 L 876.8 796.1 L 878.3 800.1 L 880.4 805.2 L 880.5 805.4 L 880.9 806.2 L 882.7 809.7 L 882.7 809.7 L 884.3 812.9 L 885.5 815.0" fill="none" stroke="#22324a" stroke-width="18" stroke-linecap="round" stroke-linejoin="round"/>
  <path d="M 134.5 125.0 L 135.1 126.2 L 135.8 126.9 L 138.2 128.8 L 140.3 130.6 L 140.6 130.8 L 144.2 133.2 L 144.6 133.5 L 146.0 134.6 L 159.0 144.4 L 212.1 184.6 L 212.7 185.0 L 213.7 185.8 L 213.7 185.8 L 215.0 186.6 L 215.0 186.6 L 216.8 187.7 L 217.0 187.8 L 221.1 190.3 L 221.2 190.3 L 221.2 190.3 L 221.2 190.3 L 226.9 193.8 L 229.3 195.3 L 229.3 195.3 L 230.9 196.3 L 232.0 197.0 L 247.0 206.0 L 247.7 206.4 L 249.4 207.4 L 266.9 217.9 L 269.6 219.5 L 272.1 221.0 L 272.3 221.1 L 277.7 224.4 L 300.2 238.1 L 321.1 250.6 L 337.0 258.4 L 350.8 265.1 L 381.3 280.8 L 397.6 289.2 L 398.3 289.6 L 403.8 292.3 L 410.6 295.6 L 421.2 300.9 L 422.6 301.6 L 459.1 320.1 L 460.1 320.6 L 460.8 320.9 L 468.2 324.7 L 469.2 325.2 L 472.0 326.5 L 480.0 330.9 L 481.5 331.6 L 483.3 332.7 L 484.1 333.2 L 484.9 333.8 L 486.1 334.6 L 486.5 334.9 L 488.2 336.1 L 489.9 337.4 L 491.1 338.4 L 491.7 338.9 L 493.8 340.8 L 495.7 342.6 L 503.3 350.3 L 509.7 356.7 L 510.9 357.9 L 513.3 360.3 L 515.2 362.3 L 515.5 362.6 L 518.8 365.8 L 522.8 369.6 L 539.8 384.1 L 549.7 392.7 L 551.1 393.9 L 553.5 395.9 L 560.1 401.4 L 561.1 402.3 L 564.8 405.4 L 573.4 412.6 L 573.7 412.8 L 577.0 415.3 L 579.7 417.1 L 580.3 417.4 L 581.2 418.0 L 586.7 421.2 L 592.4 424.6 L 594.7 425.9 L 596.8 427.2 L 597.8 427.7 L 599.8 428.9 L 606.1 432.6 L 611.5 435.7 L 611.5 435.7 L 612.7 436.4 L 617.5 439.2 L 620.7 441.1 L 628.1 445.8 L 630.3 447.2 L 632.1 448.3 L 632.1 448.4 L 634.3 449.7 L 634.6 450.0 L 636.7 451.5 L 639.3 453.6 L 640.7 454.9 L 643.2 457.2 L 643.3 457.3 L 645.6 459.6 L 649.7 463.7 L 651.1 465.1 L 653.9 467.9 L 655.3 469.2 L 668.4 482.7 L 670.7 484.9 L 670.7 484.9 L 676.3 489.4 L 685.4 495.2 L 693.3 499.9 L 693.4 500.0 L 710.5 510.2 L 710.5 510.3 L 717.4 514.6 L 724.3 518.4 L 725.5 519.1 L 725.8 519.3 L 727.8 520.6 L 728.0 520.7 L 731.0 522.7 L 731.3 522.9 L 733.0 524.3 L 735.4 526.1 L 739.0 529.2 L 741.9 532.1 L 741.9 532.1 L 742.2 532.4 L 743.7 534.1 L 745.1 535.7 L 745.1 535.7 L 746.5 537.4 L 748.5 540.1 L 751.0 543.7 L 753.7 548.4 L 761.7 563.4 L 769.1 577.1 L 769.2 577.2 L 770.8 580.6 L 771.4 581.6 L 774.3 586.7 L 778.3 594.1 L 781.1 599.3 L 783.2 603.3 L 785.1 607.1 L 786.9 610.9 L 788.1 613.6 L 795.4 630.1 L 796.9 633.0 L 799.5 637.6 L 799.7 638.0 L 801.0 640.2 L 801.0 640.2 L 804.3 646.1 L 805.1 647.4 L 805.1 647.5 L 806.3 649.6 L 808.3 653.0 L 809.7 655.5 L 809.8 655.7 L 813.6 662.6 L 813.7 662.8 L 815.6 666.1 L 816.1 667.1 L 819.9 673.7 L 819.9 673.7 L 822.2 677.8 L 822.2 677.8 L 824.0 681.0 L 833.6 697.9 L 833.8 698.3 L 850.1 727.1 L 851.8 730.2 L 854.1 734.4 L 855.5 737.4 L 857.6 742.5 L 861.9 754.8 L 863.1 758.1 L 863.8 760.1 L 866.6 767.8 L 866.6 767.8 L 866.8 768.2 L 867.4 769.8 L 868.0 771.5 L 868.9 773.9 L 869.3 775.0 L 870.8 779.0 L 872.2 783.4 L 875.2 791.9 L 876.8 796.1 L 878.3 800.1 L 880.4 805.2 L 880.5 805.4 L 880.9 806.2 L 882.7 809.7 L 882.7 809.7 L 884.3 812.9 L 885.5 815.0" fill="none" stroke="#f0c85a" stroke-width="5" stroke-linecap="round" stroke-linejoin="round"/>
  <circle cx="138.2" cy="128.8" r="10" fill="#e85a67" stroke="#fff5dc" stroke-width="3"/><text x="152.2" y="134.8" fill="#fff5dc" font-family="system-ui,sans-serif" font-size="15">1</text>
  <circle cx="247.0" cy="206.0" r="10" fill="#e85a67" stroke="#fff5dc" stroke-width="3"/><text x="261.0" y="212.0" fill="#fff5dc" font-family="system-ui,sans-serif" font-size="15">2</text>
  <circle cx="381.3" cy="280.8" r="10" fill="#e85a67" stroke="#fff5dc" stroke-width="3"/><text x="395.3" y="286.8" fill="#fff5dc" font-family="system-ui,sans-serif" font-size="15">3</text>
  <circle cx="480.0" cy="330.9" r="10" fill="#e85a67" stroke="#fff5dc" stroke-width="3"/><text x="494.0" y="336.9" fill="#fff5dc" font-family="system-ui,sans-serif" font-size="15">4</text>
  <circle cx="573.4" cy="412.6" r="10" fill="#e85a67" stroke="#fff5dc" stroke-width="3"/><text x="587.4" y="418.6" fill="#fff5dc" font-family="system-ui,sans-serif" font-size="15">5</text>
  <circle cx="685.4" cy="495.2" r="10" fill="#e85a67" stroke="#fff5dc" stroke-width="3"/><text x="699.4" y="501.2" fill="#fff5dc" font-family="system-ui,sans-serif" font-size="15">6</text>
  <circle cx="770.8" cy="580.6" r="10" fill="#e85a67" stroke="#fff5dc" stroke-width="3"/><text x="784.8" y="586.6" fill="#fff5dc" font-family="system-ui,sans-serif" font-size="15">7</text>
  <circle cx="833.6" cy="697.9" r="10" fill="#e85a67" stroke="#fff5dc" stroke-width="3"/><text x="847.6" y="703.9" fill="#fff5dc" font-family="system-ui,sans-serif" font-size="15">8</text>
  <circle cx="884.3" cy="812.9" r="10" fill="#e85a67" stroke="#fff5dc" stroke-width="3"/><text x="898.3" y="818.9" fill="#fff5dc" font-family="system-ui,sans-serif" font-size="15">9</text>
  <circle cx="134.5" cy="125.0" r="12" fill="#66d19e"/>
  <text x="152.5" y="115.0" fill="#dff8eb" font-family="system-ui,sans-serif" font-size="18" font-weight="700">Boulder-side start</text>
  <circle cx="885.5" cy="815.0" r="12" fill="#66a6ff"/>
  <text x="665.5" y="849.0" fill="#dceaff" font-family="system-ui,sans-serif" font-size="18" font-weight="700">Westminster-area end</text>
  <text x="90" y="800" fill="#91a4bf" font-family="ui-monospace,monospace" font-size="15">W 105.2584° → W 105.0520° · N 39.8549° → N 40.0003°</text>
  <path d="M 905 180 L 905 135 L 892 155 M 905 135 L 918 155" fill="none" stroke="#f4f1e8" stroke-width="4"/>
  <text x="895" y="205" fill="#f4f1e8" font-family="system-ui,sans-serif" font-size="17">N</text>
  <text x="1050" y="155" fill="#f4f1e8" font-family="system-ui,sans-serif" font-size="25" font-weight="700">Locked candidate</text>
  <text x="1050" y="196" fill="#cbd6e6" font-family="ui-monospace,monospace" font-size="19">15.372898 unique miles</text>
  <text x="1050" y="228" fill="#cbd6e6" font-family="ui-monospace,monospace" font-size="19">45 connected edges · 49 chunks</text>
  <text x="1050" y="260" fill="#cbd6e6" font-family="ui-monospace,monospace" font-size="19">9 renderer-backed viewpoints</text>
  <text x="1050" y="295" fill="#f4f1e8" font-family="system-ui,sans-serif" font-size="21" font-weight="700">Conditioned elevation profile</text>
  <rect x="1050" y="315" width="480" height="235" fill="#0c1320" stroke="#26364e"/>
  <path d="M 1050.0 510.8 L 1050.5 510.8 L 1051.0 511.9 L 1051.5 511.9 L 1051.9 513.2 L 1052.4 513.2 L 1052.9 513.2 L 1053.4 515.0 L 1053.9 515.7 L 1054.4 515.8 L 1054.9 518.2 L 1055.3 518.8 L 1055.8 520.1 L 1056.3 520.1 L 1056.8 520.1 L 1057.1 520.1 L 1057.5 520.1 L 1058.0 519.8 L 1058.5 519.6 L 1059.0 519.3 L 1059.5 519.1 L 1060.0 519.1 L 1060.5 519.1 L 1060.9 519.1 L 1061.4 519.1 L 1061.9 519.5 L 1062.4 519.9 L 1062.9 520.7 L 1063.4 521.2 L 1063.9 522.0 L 1064.3 522.9 L 1064.8 523.4 L 1065.3 524.3 L 1065.8 524.3 L 1066.3 524.3 L 1066.8 524.3 L 1067.2 524.3 L 1067.7 524.0 L 1068.2 523.7 L 1068.7 523.7 L 1069.2 523.5 L 1069.7 523.0 L 1070.2 522.9 L 1070.6 522.1 L 1071.1 521.7 L 1071.6 521.7 L 1072.1 521.1 L 1072.6 521.0 L 1073.1 520.5 L 1073.6 520.2 L 1074.0 519.8 L 1074.5 519.5 L 1075.0 519.2 L 1075.5 518.9 L 1076.0 518.7 L 1076.5 518.3 L 1076.9 518.1 L 1077.4 517.7 L 1077.9 517.5 L 1078.4 517.2 L 1078.9 517.2 L 1079.4 517.0 L 1079.9 516.9 L 1080.3 516.6 L 1080.8 516.6 L 1081.3 516.3 L 1081.8 516.2 L 1082.3 516.1 L 1082.8 515.9 L 1083.3 515.7 L 1083.7 515.6 L 1084.2 515.5 L 1084.7 515.3 L 1085.2 515.2 L 1085.7 515.2 L 1086.2 515.2 L 1086.6 515.2 L 1087.1 515.2 L 1087.6 515.2 L 1088.1 515.6 L 1088.6 515.8 L 1089.1 516.2 L 1089.6 516.6 L 1090.0 517.1 L 1090.5 517.6 L 1091.0 518.2 L 1091.5 518.6 L 1092.0 519.2 L 1092.5 519.8 L 1093.0 520.7 L 1093.4 521.3 L 1093.9 522.1 L 1094.4 522.7 L 1094.9 523.7 L 1095.0 524.0 L 1095.4 524.6 L 1095.9 525.3 L 1096.4 526.0 L 1096.9 526.6 L 1097.3 526.6 L 1097.8 526.6 L 1098.3 526.6 L 1098.8 526.6 L 1099.2 526.2 L 1099.6 526.0 L 1100.0 525.9 L 1100.5 525.5 L 1101.0 525.3 L 1101.5 525.0 L 1102.0 524.7 L 1102.5 524.4 L 1103.0 524.2 L 1103.4 523.9 L 1103.9 523.6 L 1104.4 523.3 L 1104.7 523.1 L 1105.2 522.8 L 1105.7 522.5 L 1106.1 522.3 L 1106.6 522.0 L 1107.1 521.6 L 1107.6 521.4 L 1108.1 521.1 L 1108.6 520.9 L 1109.0 520.5 L 1109.5 520.3 L 1110.0 520.1 L 1110.5 520.0 L 1111.0 519.6 L 1111.5 519.5 L 1112.0 519.3 L 1112.4 518.9 L 1112.9 518.9 L 1113.1 518.8 L 1113.6 518.6 L 1114.1 518.4 L 1114.4 518.3 L 1114.9 518.2 L 1115.4 518.1 L 1115.8 518.0 L 1116.3 517.7 L 1116.8 517.5 L 1117.3 517.5 L 1117.8 517.4 L 1118.3 517.1 L 1118.8 516.9 L 1119.2 516.8 L 1119.7 516.7 L 1120.2 516.1 L 1120.7 515.7 L 1121.2 515.2 L 1121.7 514.7 L 1122.1 513.8 L 1122.6 513.1 L 1123.1 513.1 L 1123.6 513.1 L 1123.8 512.5 L 1124.3 512.0 L 1124.8 511.5 L 1125.3 511.0 L 1125.8 508.9 L 1126.2 508.2 L 1126.7 507.5 L 1127.2 506.5 L 1127.7 506.0 L 1128.2 505.3 L 1128.7 504.3 L 1129.2 503.8 L 1129.6 503.1 L 1130.1 502.6 L 1130.6 501.6 L 1131.1 501.0 L 1131.6 500.4 L 1132.1 499.8 L 1132.5 498.9 L 1133.0 498.2 L 1133.5 497.6 L 1134.0 496.6 L 1134.5 496.1 L 1135.0 495.4 L 1135.5 494.7 L 1135.9 494.0 L 1136.4 493.2 L 1136.9 492.5 L 1137.4 492.0 L 1137.9 491.1 L 1138.4 490.4 L 1138.9 489.7 L 1139.3 489.1 L 1139.8 488.3 L 1140.3 487.6 L 1140.8 487.1 L 1141.3 486.3 L 1141.4 486.0 L 1141.9 485.2 L 1142.4 484.6 L 1142.8 483.7 L 1143.3 482.7 L 1143.8 482.0 L 1144.3 481.1 L 1144.8 479.9 L 1145.3 478.8 L 1145.8 478.1 L 1146.2 477.1 L 1146.7 475.8 L 1147.2 474.8 L 1147.7 474.1 L 1148.2 473.0 L 1148.7 471.8 L 1149.2 470.8 L 1149.6 470.0 L 1150.1 469.0 L 1150.6 468.0 L 1151.1 467.2 L 1151.6 466.1 L 1152.1 464.9 L 1152.5 463.7 L 1153.0 462.4 L 1153.5 461.5 L 1154.0 459.9 L 1154.5 458.3 L 1155.0 456.7 L 1155.5 455.2 L 1155.9 453.6 L 1156.4 452.0 L 1156.9 450.9 L 1157.4 449.3 L 1157.9 447.6 L 1158.4 446.0 L 1158.9 444.4 L 1159.3 442.5 L 1159.8 440.4 L 1160.3 438.4 L 1160.8 435.8 L 1161.3 433.1 L 1161.8 430.4 L 1162.3 427.7 L 1162.7 425.0 L 1163.2 422.4 L 1163.7 420.4 L 1164.2 417.6 L 1164.7 414.9 L 1165.2 412.2 L 1165.6 409.5 L 1166.1 406.9 L 1166.6 404.3 L 1167.1 401.7 L 1167.6 399.0 L 1168.1 396.3 L 1168.6 393.5 L 1169.0 390.8 L 1169.5 388.1 L 1170.0 386.0 L 1170.5 383.3 L 1171.0 380.6 L 1171.5 377.1 L 1172.0 374.4 L 1172.4 371.6 L 1172.9 369.6 L 1173.4 366.9 L 1173.9 364.2 L 1174.4 361.5 L 1174.9 359.0 L 1175.3 356.6 L 1175.8 354.4 L 1176.3 352.3 L 1176.8 350.3 L 1177.3 348.5 L 1177.8 346.8 L 1178.3 345.5 L 1178.7 343.8 L 1179.2 342.1 L 1179.7 340.4 L 1180.2 338.1 L 1180.7 336.2 L 1181.2 334.8 L 1181.7 332.7 L 1182.1 330.7 L 1182.6 328.7 L 1183.1 326.7 L 1183.6 324.8 L 1184.1 323.2 L 1184.6 321.5 L 1185.0 320.0 L 1185.5 318.6 L 1186.0 317.5 L 1186.5 316.6 L 1187.0 316.0 L 1187.5 315.4 L 1188.0 315.0 L 1188.4 315.0 L 1188.9 315.0 L 1189.4 315.0 L 1189.9 315.0 L 1190.4 315.4 L 1190.9 316.0 L 1191.4 316.8 L 1191.8 317.8 L 1192.3 319.0 L 1192.8 319.9 L 1193.3 321.4 L 1193.8 323.1 L 1194.3 325.0 L 1194.4 325.7 L 1194.9 327.9 L 1195.3 329.4 L 1195.8 331.9 L 1196.3 334.5 L 1196.8 337.7 L 1197.3 339.7 L 1197.7 342.3 L 1198.2 344.9 L 1198.7 347.5 L 1199.2 349.5 L 1199.6 352.2 L 1200.1 354.8 L 1200.6 357.5 L 1201.1 360.2 L 1201.6 362.9 L 1202.1 365.5 L 1202.6 368.0 L 1203.0 370.4 L 1203.1 370.4 L 1203.6 372.7 L 1204.1 374.2 L 1204.6 376.1 L 1205.0 377.9 L 1205.5 379.6 L 1206.0 381.1 L 1206.5 382.6 L 1207.0 383.6 L 1207.5 385.0 L 1207.9 386.5 L 1208.4 388.0 L 1208.9 389.4 L 1209.4 390.8 L 1209.9 391.8 L 1210.4 393.3 L 1210.9 394.8 L 1211.3 396.3 L 1211.8 397.9 L 1212.3 399.5 L 1212.8 400.4 L 1213.3 402.1 L 1213.8 403.6 L 1214.3 405.1 L 1214.7 406.6 L 1215.2 408.1 L 1215.7 409.1 L 1216.2 410.6 L 1216.7 412.2 L 1217.2 413.7 L 1217.6 415.3 L 1218.1 416.8 L 1218.6 418.3 L 1219.1 419.4 L 1219.6 420.9 L 1220.1 422.4 L 1220.6 424.0 L 1221.0 425.5 L 1221.5 427.1 L 1222.0 428.1 L 1222.5 429.5 L 1223.0 430.7 L 1223.5 431.7 L 1224.0 432.4 L 1224.4 433.0 L 1224.9 433.3 L 1225.4 433.8 L 1225.9 434.3 L 1226.4 434.8 L 1226.9 435.1 L 1226.9 435.1 L 1227.4 435.6 L 1227.9 436.1 L 1228.4 436.6 L 1228.9 437.0 L 1228.9 437.0 L 1229.4 437.4 L 1229.9 437.7 L 1230.4 438.0 L 1230.9 438.6 L 1231.4 438.9 L 1231.8 439.2 L 1232.3 439.6 L 1232.8 439.9 L 1233.3 440.2 L 1233.8 440.4 L 1234.3 441.2 L 1234.8 441.6 L 1235.2 441.7 L 1235.7 442.7 L 1236.2 443.2 L 1236.7 444.2 L 1237.2 444.8 L 1237.7 445.6 L 1238.2 445.8 L 1238.6 446.5 L 1239.1 446.9 L 1239.6 447.6 L 1240.1 448.3 L 1240.6 448.9 L 1241.1 449.5 L 1241.5 449.5 L 1242.0 449.5 L 1242.5 449.5 L 1243.0 449.5 L 1243.5 449.5 L 1244.0 448.7 L 1244.5 448.0 L 1244.9 446.5 L 1245.4 444.8 L 1245.9 442.8 L 1246.4 441.4 L 1246.9 439.0 L 1247.4 436.8 L 1247.9 435.3 L 1248.3 433.1 L 1248.8 430.7 L 1249.3 428.7 L 1249.8 427.6 L 1250.3 425.9 L 1250.8 424.3 L 1251.2 423.6 L 1251.7 422.5 L 1252.2 421.6 L 1252.7 421.0 L 1253.2 420.8 L 1253.7 420.8 L 1254.2 420.8 L 1254.6 420.8 L 1255.1 420.8 L 1255.6 421.2 L 1256.1 421.7 L 1256.6 422.3 L 1257.1 423.5 L 1257.6 424.2 L 1258.0 424.9 L 1258.5 425.7 L 1259.0 426.8 L 1259.5 427.5 L 1260.0 428.7 L 1260.5 429.7 L 1261.0 430.7 L 1261.4 432.4 L 1261.9 433.6 L 1262.4 435.4 L 1262.9 436.6 L 1263.4 437.7 L 1263.9 439.3 L 1264.3 440.3 L 1264.8 441.7 L 1265.3 442.6 L 1265.8 443.5 L 1266.3 444.8 L 1266.8 445.7 L 1267.3 447.0 L 1267.7 447.9 L 1268.2 449.2 L 1268.7 450.0 L 1269.2 450.7 L 1269.6 451.3 L 1270.1 452.6 L 1270.6 453.3 L 1271.1 454.3 L 1271.5 455.0 L 1272.0 455.7 L 1272.5 456.7 L 1273.0 457.4 L 1273.5 458.5 L 1274.0 459.3 L 1274.5 460.0 L 1274.9 461.1 L 1275.4 461.8 L 1275.9 462.9 L 1276.4 463.7 L 1276.9 464.5 L 1277.4 465.6 L 1277.9 466.3 L 1278.3 468.0 L 1278.8 471.7 L 1279.3 474.4 L 1279.8 474.4 L 1280.3 474.4 L 1280.8 474.8 L 1281.2 475.5 L 1281.7 476.3 L 1282.2 476.8 L 1282.7 477.4 L 1283.2 477.4 L 1283.7 477.4 L 1284.2 478.9 L 1284.6 480.3 L 1285.1 482.1 L 1285.6 483.3 L 1286.1 485.2 L 1286.6 486.3 L 1287.1 487.9 L 1287.6 489.4 L 1288.0 490.8 L 1288.5 492.7 L 1289.0 493.8 L 1289.5 495.7 L 1290.0 496.9 L 1290.5 498.7 L 1290.9 499.8 L 1291.4 503.4 L 1291.9 505.9 L 1292.4 507.0 L 1292.9 508.1 L 1293.4 508.6 L 1293.8 508.6 L 1294.3 510.3 L 1294.8 511.4 L 1295.3 512.8 L 1295.8 513.9 L 1296.3 514.7 L 1296.8 515.1 L 1297.2 515.3 L 1297.7 515.6 L 1298.2 516.0 L 1298.7 516.1 L 1299.2 516.3 L 1299.7 516.6 L 1300.1 516.8 L 1300.6 517.1 L 1301.1 517.4 L 1301.6 517.7 L 1302.0 518.1 L 1302.5 518.1 L 1302.5 518.1 L 1303.0 518.1 L 1303.5 518.1 L 1304.0 517.8 L 1304.5 517.6 L 1305.0 517.4 L 1305.4 517.2 L 1305.9 516.6 L 1306.4 516.4 L 1306.9 516.3 L 1307.4 516.0 L 1307.9 515.5 L 1308.3 515.3 L 1308.8 515.1 L 1309.3 514.9 L 1309.8 514.4 L 1310.3 514.3 L 1310.5 514.2 L 1311.0 514.0 L 1311.4 513.5 L 1311.9 513.3 L 1312.4 513.2 L 1312.9 513.0 L 1313.4 512.8 L 1313.9 512.3 L 1314.4 512.0 L 1314.8 511.5 L 1315.3 510.3 L 1315.8 509.2 L 1316.3 508.2 L 1316.8 506.8 L 1317.3 504.5 L 1317.8 503.2 L 1318.2 501.6 L 1318.7 501.6 L 1319.2 501.6 L 1319.7 501.6 L 1320.2 501.5 L 1320.7 499.4 L 1320.8 498.6 L 1321.2 496.4 L 1321.7 492.8 L 1322.2 490.9 L 1322.7 490.4 L 1323.2 489.5 L 1323.7 488.9 L 1324.2 488.1 L 1324.6 487.5 L 1325.1 486.7 L 1325.6 486.4 L 1326.1 485.9 L 1326.6 485.9 L 1327.1 485.9 L 1327.6 485.9 L 1328.0 485.9 L 1328.5 486.3 L 1329.0 486.7 L 1329.5 487.4 L 1330.0 488.7 L 1330.5 489.7 L 1330.9 490.7 L 1331.4 492.0 L 1331.9 493.7 L 1332.4 495.5 L 1332.9 497.3 L 1333.4 499.3 L 1333.9 501.5 L 1334.3 503.5 L 1334.8 505.1 L 1335.3 506.4 L 1335.8 507.3 L 1336.3 508.5 L 1336.8 508.9 L 1337.3 509.4 L 1337.7 509.8 L 1338.2 510.2 L 1338.7 510.8 L 1339.2 511.2 L 1339.7 511.7 L 1340.2 512.0 L 1340.6 512.0 L 1341.1 512.0 L 1341.6 512.0 L 1342.1 512.0 L 1342.6 511.2 L 1343.1 510.1 L 1343.6 509.6 L 1344.0 508.2 L 1344.5 506.9 L 1345.0 506.3 L 1345.5 504.9 L 1346.0 504.3 L 1346.5 502.9 L 1347.0 502.2 L 1347.4 500.8 L 1347.9 499.3 L 1348.4 498.5 L 1348.9 497.8 L 1349.4 496.3 L 1349.9 495.3 L 1350.3 494.2 L 1350.8 491.8 L 1351.3 489.9 L 1351.8 487.9 L 1352.3 486.3 L 1352.8 483.5 L 1353.3 481.5 L 1353.7 479.9 L 1354.2 477.2 L 1354.7 475.1 L 1355.2 473.5 L 1355.7 471.5 L 1356.2 468.9 L 1356.7 467.2 L 1357.1 466.0 L 1357.6 464.7 L 1358.1 463.7 L 1358.6 462.3 L 1359.1 461.8 L 1359.6 461.4 L 1360.0 461.4 L 1360.5 461.4 L 1361.0 461.4 L 1361.5 461.4 L 1362.0 461.4 L 1362.5 461.7 L 1363.0 462.2 L 1363.4 462.4 L 1363.9 462.4 L 1364.4 462.4 L 1364.9 462.4 L 1365.4 462.4 L 1365.9 461.8 L 1366.4 461.6 L 1366.5 461.6 L 1367.0 461.4 L 1367.5 461.3 L 1368.0 460.7 L 1368.4 460.6 L 1368.9 460.4 L 1369.4 459.9 L 1369.9 459.7 L 1370.4 459.5 L 1370.9 459.1 L 1371.4 458.9 L 1371.8 458.7 L 1372.3 458.6 L 1372.8 458.3 L 1373.3 458.2 L 1373.7 457.8 L 1374.2 457.2 L 1374.7 456.7 L 1375.2 456.4 L 1375.5 456.1 L 1376.0 455.9 L 1376.5 455.3 L 1377.0 455.0 L 1377.5 454.6 L 1377.9 454.1 L 1378.4 453.7 L 1378.6 453.7 L 1379.0 453.4 L 1379.5 453.0 L 1379.9 452.6 L 1380.4 452.5 L 1380.9 452.1 L 1381.4 451.7 L 1381.9 451.6 L 1382.3 451.1 L 1382.8 450.6 L 1383.3 450.4 L 1383.8 450.2 L 1384.0 449.9 L 1384.5 449.6 L 1385.0 449.2 L 1385.3 449.0 L 1385.8 448.6 L 1386.3 448.3 L 1386.8 448.0 L 1387.3 448.0 L 1387.7 448.0 L 1388.2 448.0 L 1388.7 448.0 L 1389.2 448.1 L 1389.7 449.0 L 1390.2 449.8 L 1390.6 450.8 L 1391.1 451.8 L 1391.6 453.0 L 1392.1 454.1 L 1392.6 455.6 L 1393.1 456.5 L 1393.6 457.3 L 1394.0 458.0 L 1394.5 458.7 L 1395.0 459.6 L 1395.5 460.4 L 1396.0 461.7 L 1396.5 462.9 L 1397.0 464.1 L 1397.4 465.1 L 1397.9 466.3 L 1398.4 467.3 L 1398.9 468.7 L 1399.4 469.6 L 1399.9 470.9 L 1400.3 472.3 L 1400.8 473.5 L 1401.3 474.5 L 1401.8 475.8 L 1402.3 476.8 L 1402.8 478.1 L 1403.3 479.1 L 1403.7 480.5 L 1404.2 481.7 L 1404.7 483.1 L 1405.2 484.1 L 1405.7 485.6 L 1406.2 486.5 L 1406.7 487.9 L 1407.1 488.9 L 1407.6 490.3 L 1408.1 491.5 L 1408.6 492.5 L 1409.1 493.6 L 1409.6 494.7 L 1410.0 496.1 L 1410.5 497.1 L 1411.0 498.5 L 1411.5 499.5 L 1412.0 500.2 L 1412.5 500.2 L 1413.0 500.2 L 1413.4 500.2 L 1413.9 500.2 L 1414.4 500.2 L 1414.9 499.9 L 1415.4 499.7 L 1415.9 499.1 L 1416.4 498.9 L 1416.8 498.5 L 1417.3 498.3 L 1417.8 498.1 L 1418.3 498.0 L 1418.8 497.6 L 1419.3 497.2 L 1419.8 496.9 L 1420.2 496.5 L 1420.7 496.3 L 1421.2 496.0 L 1421.7 496.0 L 1422.2 496.0 L 1422.7 496.0 L 1423.1 496.0 L 1423.6 496.4 L 1424.1 496.7 L 1424.6 497.1 L 1425.1 498.0 L 1425.6 498.7 L 1425.7 498.7 L 1426.2 500.1 L 1426.7 501.0 L 1427.2 501.8 L 1427.7 503.1 L 1428.2 504.0 L 1428.6 505.1 L 1429.1 505.9 L 1429.6 507.3 L 1430.1 508.0 L 1430.6 508.7 L 1431.1 508.8 L 1431.6 508.8 L 1432.0 508.8 L 1432.5 508.8 L 1433.0 508.8 L 1433.5 507.5 L 1434.0 506.5 L 1434.5 505.3 L 1434.9 504.0 L 1435.4 502.7 L 1435.9 501.2 L 1436.4 500.4 L 1436.9 500.4 L 1437.4 500.4 L 1437.9 500.4 L 1438.3 500.4 L 1438.8 502.5 L 1439.3 502.8 L 1439.8 503.9 L 1440.3 505.6 L 1440.8 507.0 L 1441.3 507.0 L 1441.7 507.0 L 1442.2 507.0 L 1442.7 509.2 L 1443.2 510.9 L 1443.7 513.4 L 1444.2 516.0 L 1444.4 517.5 L 1444.9 519.3 L 1445.4 522.9 L 1445.5 523.8 L 1446.0 527.5 L 1446.5 531.1 L 1447.0 534.0 L 1447.5 534.0 L 1447.9 534.0 L 1448.4 535.9 L 1448.9 537.6 L 1449.4 538.6 L 1449.9 539.9 L 1450.4 540.5 L 1450.8 541.2 L 1451.3 541.5 L 1451.8 542.0 L 1452.3 542.2 L 1452.6 542.6 L 1453.0 543.0 L 1453.5 543.3 L 1454.0 543.8 L 1454.5 544.1 L 1454.6 544.3 L 1455.1 544.6 L 1455.6 545.0 L 1456.1 545.3 L 1456.6 545.8 L 1457.1 546.3 L 1457.6 546.5 L 1458.0 547.0 L 1458.3 547.1 L 1458.8 547.4 L 1459.2 547.8 L 1459.7 548.3 L 1460.2 548.8 L 1460.4 548.8 L 1460.9 550.0 L 1461.4 550.0 L 1461.9 550.0 L 1462.4 550.0 L 1462.9 550.0 L 1463.4 549.7 L 1463.8 549.2 L 1464.3 548.5 L 1464.8 547.6 L 1465.3 546.4 L 1465.8 545.1 L 1466.3 543.9 L 1466.7 542.0 L 1467.2 540.6 L 1467.7 539.4 L 1468.2 538.1 L 1468.7 536.8 L 1469.2 535.5 L 1469.7 534.3 L 1470.1 533.0 L 1470.6 531.6 L 1471.1 530.3 L 1471.6 528.4 L 1472.1 527.2 L 1472.6 525.9 L 1473.1 524.6 L 1473.5 523.3 L 1474.0 522.0 L 1474.5 520.7 L 1475.0 519.5 L 1475.5 518.1 L 1476.0 516.2 L 1476.5 515.0 L 1476.9 513.6 L 1477.4 512.4 L 1477.9 511.1 L 1478.4 509.8 L 1478.9 508.5 L 1479.4 507.2 L 1479.8 505.9 L 1480.3 504.2 L 1480.8 502.7 L 1481.3 501.6 L 1481.8 500.2 L 1482.3 499.1 L 1482.8 497.9 L 1483.2 497.0 L 1483.7 496.1 L 1484.2 495.4 L 1484.7 494.5 L 1485.2 493.7 L 1485.7 493.2 L 1486.2 492.4 L 1486.3 492.3 L 1486.8 491.5 L 1487.3 490.6 L 1487.8 489.8 L 1488.3 488.3 L 1488.8 487.1 L 1489.2 485.1 L 1489.7 483.5 L 1490.2 480.9 L 1490.7 478.2 L 1491.2 475.3 L 1491.7 473.1 L 1492.2 470.9 L 1492.6 468.7 L 1493.1 465.1 L 1493.6 462.7 L 1494.1 460.6 L 1494.6 458.6 L 1495.1 456.2 L 1495.6 454.6 L 1496.0 453.2 L 1496.5 451.5 L 1497.0 450.4 L 1497.5 449.5 L 1498.0 448.7 L 1498.5 448.0 L 1498.9 447.6 L 1499.4 447.4 L 1499.9 447.3 L 1500.4 446.8 L 1500.9 446.5 L 1501.4 446.3 L 1501.8 446.1 L 1502.3 445.6 L 1502.8 445.4 L 1503.3 445.1 L 1503.8 444.7 L 1504.3 444.4 L 1504.8 444.2 L 1505.2 444.2 L 1505.7 443.7 L 1506.2 443.4 L 1506.5 443.2 L 1506.9 442.9 L 1507.4 442.7 L 1507.9 442.2 L 1508.4 442.0 L 1508.9 441.8 L 1509.4 441.3 L 1509.9 441.0 L 1510.1 440.8 L 1510.6 440.7 L 1511.1 440.5 L 1511.5 440.0 L 1512.0 439.8 L 1512.5 439.5 L 1513.0 439.3 L 1513.5 439.2 L 1514.0 439.2 L 1514.5 439.2 L 1514.9 439.2 L 1515.4 439.2 L 1515.9 439.5 L 1516.4 439.9 L 1516.9 441.0 L 1517.4 441.5 L 1517.8 442.3 L 1518.3 442.7 L 1518.8 443.5 L 1519.2 444.4 L 1519.7 445.1 L 1520.2 445.9 L 1520.7 446.6 L 1521.2 448.0 L 1521.7 448.7 L 1522.2 449.6 L 1522.6 450.1 L 1523.1 451.3 L 1523.6 452.1 L 1524.1 453.0 L 1524.6 453.9 L 1524.7 453.9 L 1525.2 455.0 L 1525.7 455.9 L 1526.2 456.9 L 1526.7 457.8 L 1527.1 457.8 L 1527.2 457.8 L 1527.7 457.9 L 1528.2 459.1 L 1528.7 459.1 L 1529.2 459.3 L 1529.6 459.3 L 1530.0 459.9" fill="none" stroke="#66d19e" stroke-width="4"/>
  <text x="1050" y="578" fill="#91a4bf" font-family="ui-monospace,monospace" font-size="15">0 mi</text>
  <text x="1460" y="578" fill="#91a4bf" font-family="ui-monospace,monospace" font-size="15">15.37 mi</text>
  <text x="1060" y="339" fill="#91a4bf" font-family="ui-monospace,monospace" font-size="15">1731.0 m</text>
  <text x="1060" y="540" fill="#91a4bf" font-family="ui-monospace,monospace" font-size="15">1618.1 m</text>
  <text x="1050" y="625" fill="#f4f1e8" font-family="system-ui,sans-serif" font-size="21" font-weight="700">Automated gates</text>
  <text x="1050" y="662" fill="#cbd6e6" font-family="ui-monospace,monospace" font-size="17">✓ exact source hashes</text>
  <text x="1050" y="692" fill="#cbd6e6" font-family="ui-monospace,monospace" font-size="17">✓ directed edge continuity</text>
  <text x="1050" y="722" fill="#cbd6e6" font-family="ui-monospace,monospace" font-size="17">✓ all chunks rendered</text>
  <text x="1050" y="752" fill="#cbd6e6" font-family="ui-monospace,monospace" font-size="17">✓ max grade 7.00%</text>
  <text x="1050" y="800" fill="#e8b2b7" font-family="system-ui,sans-serif" font-size="18" font-weight="700">Human geographic approval remains required.</text>
  <text x="70" y="872" fill="#71839e" font-family="system-ui,sans-serif" font-size="14">Route geometry: U.S. DOT National Highway Planning Network. Elevation: USGS 3DEP. Review graphic is derived from the committed lock and package metadata.</text>
</svg>
